<svg width="25" height="23" viewBox="0 0 25 23" fill="none" xmlns="http://www.w3.org/2000/svg">
<path d="M2.92969 14.6102L1.06509 14.216C0.518604 15.2727 0 16.4597 0 17.8273C0 19.1686 0.497607 20.3413 1.06509 21.4385L7.37305 20.1049V22.735L9.57031 21.682L11.7676 22.735V20.1063L18.0263 21.4393C18.5686 20.3908 19.0918 19.2006 19.0918 17.8273C19.0918 17.5906 19.0735 17.3549 19.0428 17.1253H25V0.277954H2.92969V14.6102ZM1.90088 19.8241C1.71035 19.3412 1.46484 18.5741 1.46484 17.8273C1.46484 17.0803 1.7104 16.3131 1.90088 15.8304L7.37305 16.9873V18.6672L1.90088 19.8241ZM10.3027 20.4634L9.57031 20.1124L8.83789 20.4634V17.1252H10.3027V20.4634ZM17.1913 19.8233L11.7676 18.6681V16.9864L17.1913 15.8312C17.3817 16.3142 17.627 17.0808 17.627 17.8272C17.627 18.5738 17.3817 19.3405 17.1913 19.8233ZM23.5352 1.6819V15.7213H18.7038C18.4637 15.0174 18.2701 14.685 18.0263 14.2152L10.9548 15.7213H8.18535L4.39453 14.9199V1.6819H23.5352Z" fill="black"/>
<path d="M8.83789 3.08569H19.0918V4.49094H8.83789V3.08569Z" fill="black"/>
<path d="M5.85938 8.70142H22.0703V10.1067H5.85938V8.70142Z" fill="black"/>
<path d="M8.83789 11.5094H19.0918V12.9146H8.83789V11.5094Z" fill="black"/>
<path d="M10.3027 5.89355H11.7676V7.2988H10.3027V5.89355Z" fill="black"/>
<path d="M13.2324 5.89355H14.6973V7.2988H13.2324V5.89355Z" fill="black"/>
<path d="M16.1621 5.89355H17.627V7.2988H16.1621V5.89355Z" fill="black"/>
</svg>
