<svg width="25" height="25" viewBox="0 0 25 25" fill="none" xmlns="http://www.w3.org/2000/svg">
<path d="M20.2645 18.669L19.6145 19.0846L21.1449 21.2849H3.85469L5.67773 18.6642H15.6023V17.9154H5.46875C5.40446 17.9154 5.34115 17.9306 5.28446 17.9597C5.22777 17.9887 5.17943 18.0307 5.14375 18.082L2.8 21.4515C2.75732 21.5131 2.7345 21.5853 2.73438 21.6593V22.7824C2.73438 22.981 2.81668 23.1715 2.9632 23.3119C3.10971 23.4523 3.30842 23.5312 3.51562 23.5312H21.4844C21.6916 23.5312 21.8903 23.4523 22.0368 23.3119C22.1833 23.1715 22.2656 22.981 22.2656 22.7824V21.6593C22.2655 21.5853 22.2427 21.5131 22.2 21.4515L20.2645 18.669ZM3.51562 22.7824V22.0336H21.4844V22.7824H3.51562Z" fill="black"/>
<path d="M20.3125 1.06812H4.6875C4.37698 1.069 4.07945 1.18762 3.85988 1.39806C3.64032 1.6085 3.51655 1.89367 3.51562 2.19127V11.9253C3.51655 12.2229 3.64032 12.5081 3.85988 12.7185C4.07945 12.9289 4.37698 13.0476 4.6875 13.0484H10.1562V14.546H8.59375C8.49015 14.546 8.39079 14.5854 8.31754 14.6556C8.24428 14.7259 8.20312 14.8211 8.20312 14.9204V16.4179C8.20312 16.5172 8.24428 16.6124 8.31754 16.6826C8.39079 16.7529 8.49015 16.7923 8.59375 16.7923H16.4062C16.5099 16.7923 16.6092 16.7529 16.6825 16.6826C16.7557 16.6124 16.7969 16.5172 16.7969 16.4179V14.9204C16.7969 14.8211 16.7557 14.7259 16.6825 14.6556C16.6092 14.5854 16.5099 14.546 16.4062 14.546H14.8438V13.0484H20.3125C20.623 13.0476 20.9205 12.9289 21.1401 12.7185C21.3597 12.5081 21.4834 12.2229 21.4844 11.9253V2.19127C21.4834 1.89367 21.3597 1.6085 21.1401 1.39806C20.9205 1.18762 20.623 1.069 20.3125 1.06812ZM16.0156 15.2948V16.0435H8.98438V15.2948H16.0156ZM10.9375 14.546V13.0484H14.0625V14.546H10.9375ZM20.7031 11.9253C20.7031 12.0246 20.662 12.1198 20.5887 12.19C20.5155 12.2602 20.4161 12.2997 20.3125 12.2997H4.6875C4.5839 12.2997 4.48454 12.2602 4.41129 12.19C4.33803 12.1198 4.29688 12.0246 4.29688 11.9253V10.8021H20.7031V11.9253ZM20.7031 10.0534H4.29688V2.19127C4.29688 2.09198 4.33803 1.99675 4.41129 1.92654C4.48454 1.85633 4.5839 1.81689 4.6875 1.81689H20.3125C20.4161 1.81689 20.5155 1.85633 20.5887 1.92654C20.662 1.99675 20.7031 2.09198 20.7031 2.19127V10.0534Z" fill="black"/>
<path d="M18.3594 11.1765H19.1406V11.926H18.3594V11.1765Z" fill="black"/>
<path d="M8.98438 9.30461H10.5469C10.6505 9.30461 10.7498 9.26517 10.8231 9.19496C10.8963 9.12475 10.9375 9.02952 10.9375 8.93023V8.55584H14.0625V8.93023C14.0625 9.02952 14.1037 9.12475 14.1769 9.19496C14.2502 9.26517 14.3495 9.30461 14.4531 9.30461H16.0156C16.1192 9.30461 16.2186 9.26517 16.2918 9.19496C16.3651 9.12475 16.4062 9.02952 16.4062 8.93023V7.43268C16.4062 7.33339 16.3651 7.23816 16.2918 7.16795C16.2186 7.09774 16.1192 7.0583 16.0156 7.0583H15.625V4.81199H16.0156C16.1192 4.81199 16.2186 4.77254 16.2918 4.70233C16.3651 4.63212 16.4062 4.53689 16.4062 4.4376V2.94006C16.4062 2.84077 16.3651 2.74554 16.2918 2.67533C16.2186 2.60512 16.1192 2.56567 16.0156 2.56567H14.4531C14.3495 2.56567 14.2502 2.60512 14.1769 2.67533C14.1037 2.74554 14.0625 2.84077 14.0625 2.94006V3.31444H10.9375V2.94006C10.9375 2.84077 10.8963 2.74554 10.8231 2.67533C10.7498 2.60512 10.6505 2.56567 10.5469 2.56567H8.98438C8.88077 2.56567 8.78142 2.60512 8.70816 2.67533C8.6349 2.74554 8.59375 2.84077 8.59375 2.94006V4.4376C8.59375 4.53689 8.6349 4.63212 8.70816 4.70233C8.78142 4.77254 8.88077 4.81199 8.98438 4.81199H9.375V7.0583H8.98438C8.88077 7.0583 8.78142 7.09774 8.70816 7.16795C8.6349 7.23816 8.59375 7.33339 8.59375 7.43268V8.93023C8.59375 9.02952 8.6349 9.12475 8.70816 9.19496C8.78142 9.26517 8.88077 9.30461 8.98438 9.30461ZM15.625 8.55584H14.8438V7.80707H15.625V8.55584ZM14.8438 3.31444H15.625V4.06322H14.8438V3.31444ZM9.375 3.31444H10.1562V4.06322H9.375V3.31444ZM10.1562 4.81199H10.5469C10.6505 4.81199 10.7498 4.77254 10.8231 4.70233C10.8963 4.63212 10.9375 4.53689 10.9375 4.4376V4.06322H14.0625V4.4376C14.0625 4.53689 14.1037 4.63212 14.1769 4.70233C14.2502 4.77254 14.3495 4.81199 14.4531 4.81199H14.8438V7.0583H14.4531C14.3495 7.0583 14.2502 7.09774 14.1769 7.16795C14.1037 7.23816 14.0625 7.33339 14.0625 7.43268V7.80707H10.9375V7.43268C10.9375 7.33339 10.8963 7.23816 10.8231 7.16795C10.7498 7.09774 10.6505 7.0583 10.5469 7.0583H10.1562V4.81199ZM9.375 7.80707H10.1562V8.55584H9.375V7.80707Z" fill="black"/>
<path d="M8.98438 19.7874H14.4531V20.5368H8.98438V19.7874Z" fill="black"/>
<path d="M23.3867 14.1117L22.2813 13.0522C22.2449 13.0173 22.2016 12.9898 22.154 12.9711C22.1064 12.9525 22.0553 12.9431 22.0039 12.9436C21.9531 12.9431 21.9026 12.9525 21.8556 12.9712C21.8086 12.9898 21.7661 13.0174 21.7305 13.0522L16.4805 18.0839C16.4377 18.1249 16.4055 18.1749 16.3867 18.2299L16.1094 19.0236C16.0871 19.0894 16.084 19.1598 16.1005 19.2271C16.1171 19.2945 16.1526 19.3562 16.2031 19.4055L15.6523 19.9371L16.2031 20.465L16.7578 19.9371C16.7936 19.9717 16.8363 19.999 16.8832 20.0177C16.9301 20.0363 16.9804 20.0458 17.0312 20.0457C17.0736 20.0453 17.1157 20.039 17.1562 20.027L17.9844 19.7612C18.0418 19.7431 18.094 19.7124 18.1367 19.6713L23.3867 14.6396C23.4595 14.5694 23.5003 14.4746 23.5003 14.3756C23.5003 14.2767 23.4595 14.1818 23.3867 14.1117ZM17.6523 19.0798L17.1406 19.2408L16.9258 19.0386L17.0977 18.5482L20.8984 14.9054L21.4531 15.4333L17.6523 19.0798ZM22.0039 14.9054L21.4531 14.3775L22.0039 13.8459L22.5586 14.3775L22.0039 14.9054Z" fill="black"/>
</svg>
