<svg width="25" height="25" viewBox="0 0 25 25" fill="none" xmlns="http://www.w3.org/2000/svg">
<g clip-path="url(#clip0_11_59)">
<path d="M22.5 4.18884H11.25V4.98827H22.5V4.18884Z" fill="black"/>
<path d="M18.3333 5.78613H11.25V6.58556H18.3333V5.78613Z" fill="black"/>
<path d="M18.3333 7.38354H11.25V8.18298H18.3333V7.38354Z" fill="black"/>
<path d="M22.5 2.59143H14.5833V3.39086H22.5V2.59143Z" fill="black"/>
<path d="M13.75 2.59143H12.9167V3.39086H13.75V2.59143Z" fill="black"/>
<path d="M12.9166 16.5685H12.0833V17.3679H12.9166V16.5685Z" fill="black"/>
<path d="M6.96124 3.27338L6.37207 2.7085L5.53874 3.50748C5.37608 3.66348 5.37608 3.91636 5.53874 4.07236L6.37207 4.87135L6.96124 4.30647L6.42249 3.78992L6.96124 3.27338Z" fill="black"/>
<path d="M10.2946 3.50748L9.46124 2.7085L8.87207 3.27338L9.41082 3.78992L8.87207 4.30647L9.46124 4.87135L10.2946 4.07236C10.4572 3.91636 10.4572 3.66348 10.2946 3.50748Z" fill="black"/>
<path d="M7.93864 2.46389L7.10425 4.86072L7.89438 5.11339L8.72877 2.71656L7.93864 2.46389Z" fill="black"/>
<path d="M21.6667 12.9744V9.77965H20.8334V12.9744H20V8.98096H19.1667V12.9744H18.3334V10.9777H17.5V12.9744H16.6667V10.5783H15.8334V12.9744H15V11.377H14.1667V12.9744H13.3334V13.7731H22.5V12.9744H21.6667Z" fill="black"/>
<path d="M22.0834 0.594727H2.91669C1.53653 0.596024 0.418041 1.66801 0.416687 2.99079V10.8283V10.8319V15.3705V16.5685C0.418041 17.8913 1.53653 18.9633 2.91669 18.9646H8.07585L6.40919 22.1593H4.16669C3.47632 22.1593 2.91669 22.6957 2.91669 23.3574C2.91669 24.019 3.47632 24.5554 4.16669 24.5554H20.8334C21.5237 24.5554 22.0834 24.019 22.0834 23.3574C22.0834 22.6957 21.5237 22.1593 20.8334 22.1593H18.5909L16.9242 18.9646H22.0834C23.4635 18.9633 24.582 17.8913 24.5834 16.5685V2.99079C24.582 1.66801 23.4635 0.596024 22.0834 0.594727ZM1.25002 6.2135L2.1971 7.29413C2.27627 7.38453 2.39315 7.43669 2.51627 7.43669H3.79169C3.91481 7.43669 4.03169 7.38453 4.11085 7.29413L5.05835 6.2135L5.99335 6.50462L6.09669 7.91151C6.10523 8.02917 6.16762 8.13719 6.2671 8.20663L7.29919 8.92545C7.39903 8.99454 7.52549 9.01805 7.64502 8.98974L9.07544 8.6491L9.65377 9.41145L8.87419 10.6095C8.8096 10.7099 8.79466 10.8326 8.83335 10.9445L9.22794 12.107C9.26591 12.2191 9.35356 12.3095 9.46752 12.3538L10.8334 12.8846V13.827L9.46669 14.3577C9.35247 14.4019 9.26466 14.4925 9.2271 14.6049L9.1021 14.9711H6.70169C7.63544 13.0974 6.80752 10.8529 4.85252 9.958C3.70424 9.43237 2.36122 9.4732 1.25002 10.0676V6.2135ZM1.25002 11.0176C2.59773 10.0099 4.54262 10.2401 5.59398 11.5319C6.40575 12.5291 6.46841 13.9101 5.75002 14.9711H1.25002V11.0176ZM20.8334 22.958C21.0635 22.958 21.25 23.1368 21.25 23.3574C21.25 23.5779 21.0635 23.7567 20.8334 23.7567H4.16669C3.93658 23.7567 3.75002 23.5779 3.75002 23.3574C3.75002 23.1368 3.93658 22.958 4.16669 22.958H20.8334ZM17.6592 22.1593H7.34085L9.00752 18.9646H15.9925L17.6592 22.1593ZM23.75 16.5685C23.75 17.4507 23.0038 18.1659 22.0834 18.1659H2.91669C1.99622 18.1659 1.25002 17.4507 1.25002 16.5685V15.7698H5.96752H5.97127H23.75V16.5685ZM23.75 14.9711H10.1063L11.4067 14.466C11.5638 14.4049 11.6666 14.2586 11.6667 14.0962V12.615C11.6667 12.4524 11.5639 12.306 11.4067 12.2448L9.95835 11.6833L9.68419 10.8747L10.51 9.60473C10.5996 9.46676 10.593 9.29055 10.4934 9.15907L9.58502 7.96103C9.48528 7.8294 9.31226 7.7689 9.14752 7.80808L7.63252 8.16749L6.91669 7.66911L6.8071 6.17956C6.79518 6.01717 6.68158 5.87795 6.52002 5.82774L5.05127 5.37009C4.88966 5.32077 4.71299 5.36944 4.60335 5.49348L3.60044 6.63761H2.71169L1.70835 5.49348C1.59867 5.36929 1.42174 5.32057 1.26002 5.37009L1.25002 5.37368V2.99079C1.25002 2.10859 1.99622 1.39342 2.91669 1.39342H22.0834C23.0038 1.39342 23.75 2.10859 23.75 2.99079V14.9711Z" fill="black"/>
</g>
<defs>
<clipPath id="clip0_11_59">
<rect width="25" height="23.9607" fill="white" transform="translate(0 0.594727)"/>
</clipPath>
</defs>
</svg>
