<svg width="21" height="25" viewBox="0 0 21 25" fill="none" xmlns="http://www.w3.org/2000/svg">
<path d="M17.7169 16.2487L16.2497 15.8358L13.0575 13.8375V13.3796C13.9817 12.7114 14.6164 11.6902 14.7343 10.5195C15.1978 10.448 15.553 10.062 15.553 9.59791V8.33881C15.553 8.33394 15.5524 8.32916 15.5522 8.3243V6.72932C15.7369 6.60259 15.854 6.39617 15.854 6.16461V4.70498L18.057 4.34533C18.4191 4.28622 18.6794 4.01063 18.705 3.6595C18.7305 3.30838 18.5126 3.00082 18.1626 2.89417L10.736 0.630164C10.5811 0.582898 10.4174 0.582945 10.2625 0.630118L2.83579 2.89417C2.48583 3.00082 2.26787 3.30838 2.2934 3.65946C2.30961 3.88254 2.42084 4.07488 2.59252 4.20086V6.10962H2.57436C2.15615 6.10962 1.81591 6.43571 1.81591 6.83654V7.78401L1.32631 10.5382C1.24169 11.0145 1.62451 11.4506 2.12988 11.4506H3.78754C4.29179 11.4506 4.67592 11.0156 4.59111 10.5381L4.10151 7.78401V6.83654C4.10151 6.43571 3.76127 6.10962 3.34306 6.10962H3.32495V4.4079L5.14594 4.70516V6.16461C5.14594 6.39518 5.26259 6.60128 5.44638 6.7282L5.44707 8.33895V9.59791C5.44707 10.062 5.80219 10.448 6.26572 10.5195C6.38364 11.6895 7.01762 12.7103 7.94096 13.3785V13.8385L4.74946 15.8365L3.28339 16.2489C1.71459 16.6902 0.606879 18.0706 0.606879 19.6752V20.7213C0.606879 20.9151 0.770795 21.0723 0.97309 21.0723C1.17538 21.0723 1.3393 20.9152 1.3393 20.7213V19.6752C1.3393 18.4106 2.22353 17.2786 3.48969 16.9224L4.85571 16.5381L10.313 19.6461C10.4238 19.7092 10.5704 19.7126 10.6872 19.6461L16.1448 16.5379L17.5107 16.9222C18.7767 17.2785 19.6609 18.4104 19.6609 19.675V23.065C19.6609 23.4998 19.2918 23.8535 18.8381 23.8535H17.224V22.3406C17.224 22.1468 17.0601 21.9896 16.8578 21.9896C16.6556 21.9896 16.4916 22.1467 16.4916 22.3406V23.8535H4.50683V22.3406C4.50683 22.1468 4.34291 21.9896 4.14062 21.9896C3.93832 21.9896 3.77441 22.1467 3.77441 22.3406V23.8535H2.16196C1.70829 23.8535 1.3392 23.4998 1.3392 23.065V22.362C1.3392 22.1681 1.17529 22.011 0.972992 22.011C0.770697 22.011 0.606781 22.1681 0.606781 22.362V23.0649C0.606781 23.8868 1.30439 24.5554 2.16191 24.5554H18.838C19.6956 24.5554 20.3932 23.8868 20.3932 23.0649V19.675C20.3932 18.1082 19.3232 16.7007 17.7169 16.2487ZM3.78749 10.7486H2.12988C2.07866 10.7486 2.03959 10.7047 2.04828 10.656L2.49116 8.16467H3.42621L3.86909 10.656C3.87773 10.7046 3.83896 10.7486 3.78749 10.7486ZM3.36909 6.83654V7.46274H2.54824V6.83654C2.54824 6.82273 2.55991 6.81155 2.57431 6.81155H3.34296C3.35742 6.8115 3.36909 6.82273 3.36909 6.83654ZM9.19028 18.0585L9.33603 18.2732L5.59731 16.144L7.97041 14.6584C8.07802 15.8686 8.49423 17.0332 9.19028 18.0585ZM9.18774 16.5434C10.0497 16.6607 10.9498 16.6608 11.8123 16.5434C11.6456 16.9364 11.4402 17.3156 11.1958 17.6757L10.5 18.7008L9.80415 17.6757C9.55976 17.3156 9.35439 16.9364 9.18774 16.5434ZM11.8097 18.0585C12.5058 17.0332 12.922 15.8686 13.0295 14.6584L15.4026 16.1439L11.664 18.2732L11.8097 18.0585ZM13.9519 6.86003H14.8198V7.98777H14.389C14.1479 7.98777 13.9518 7.79983 13.9518 7.56879V6.86003H13.9519ZM3.05776 3.5631L10.4846 1.299C10.4941 1.2961 10.5043 1.29606 10.514 1.29905L17.9408 3.5631C17.9561 3.56778 17.9771 3.57414 17.9745 3.61069C17.9718 3.6472 17.95 3.65071 17.9341 3.65333L15.4787 4.05415L14.5568 3.94488C14.3562 3.92106 14.1733 4.0578 14.1484 4.25014C14.1236 4.44253 14.2663 4.61774 14.4669 4.64152L15.1217 4.71915V6.1581L5.87832 6.15778V4.71911L9.66772 4.26971C10.2197 4.20433 10.7792 4.20433 11.3308 4.26971L12.765 4.43972C12.9657 4.46354 13.1486 4.32685 13.1734 4.13451C13.1983 3.94212 13.0557 3.76691 12.855 3.74309L11.4207 3.57307C10.8096 3.50058 10.1894 3.50058 9.57783 3.57307L5.5205 4.05425L3.0643 3.65333C3.04838 3.65071 3.02665 3.6472 3.02397 3.61069C3.02133 3.57414 3.04238 3.56773 3.05776 3.5631ZM6.17924 7.98777L6.17875 6.86003H7.04814V7.56883C7.04814 7.79983 6.85205 7.98782 6.61093 7.98782H6.17924V7.98777ZM6.98525 10.3391C6.9664 10.0533 6.71855 9.82942 6.42104 9.82942C6.28779 9.82942 6.17939 9.72553 6.17939 9.59786V8.68974H6.61093C7.25581 8.68974 7.78051 8.1869 7.78051 7.56883V6.86003H13.2194V7.56883C13.2194 8.1869 13.7441 8.68974 14.389 8.68974H14.8206V9.59786C14.8206 9.72553 14.7122 9.82942 14.5789 9.82942C14.2814 9.82942 14.0335 10.0533 14.0147 10.3391C13.898 12.1113 12.3542 13.4996 10.4999 13.4996C8.6457 13.4996 7.1019 12.1113 6.98525 10.3391ZM10.5 14.2015C11.1513 14.2015 11.7704 14.0588 12.3251 13.805V14.0275C12.3251 14.6275 12.2406 15.2195 12.078 15.7904C11.0828 15.9723 9.95761 15.9796 8.92202 15.7904C8.75937 15.2195 8.6749 14.6276 8.6749 14.0275C8.6749 14.02 8.67382 14.0128 8.67334 14.0054C8.67324 14.004 8.67338 14.0025 8.67329 14.0011V13.8043C9.22841 14.0585 9.84804 14.2015 10.5 14.2015Z" fill="black"/>
</svg>
