<svg width="25" height="23" fill="none" xmlns="http://www.w3.org/2000/svg"><path d="M2.93 14.61l-1.865-.394C.52 15.273 0 16.46 0 17.827c0 1.342.498 2.514 1.065 3.611l6.308-1.333v2.63l2.197-1.053 2.198 1.053v-2.629l6.258 1.333c.543-1.048 1.066-2.238 1.066-3.612a5.31 5.31 0 00-.05-.702H25V.278H2.93V14.61zM1.9 19.824c-.19-.483-.435-1.25-.435-1.997 0-.747.245-1.514.436-1.997l5.472 1.157v1.68l-5.472 1.157zm8.403.64l-.733-.352-.732.351v-3.338h1.465v3.338zm6.888-.64l-5.423-1.156v-1.682l5.423-1.155c.19.483.436 1.25.436 1.996 0 .747-.245 1.513-.436 1.996zm6.344-18.142v14.04h-4.831c-.24-.705-.434-1.037-.678-1.507l-7.071 1.506h-2.77l-3.79-.801V1.682h19.14z" fill="#000"/><path d="M8.838 3.086h10.254V4.49H8.838V3.086zM5.86 8.701h16.21v1.406H5.86V8.7zm2.978 2.809h10.254v1.405H8.838v-1.406zm1.465-5.616h1.465v1.405h-1.465V5.894zm2.929 0h1.465v1.405h-1.465V5.894zm2.93 0h1.465v1.405h-1.465V5.894z" fill="#000"/></svg>