<svg width="25" height="25" fill="none" xmlns="http://www.w3.org/2000/svg"><path d="M20.265 18.669l-.65.416 1.53 2.2H3.855l1.823-2.62h9.924v-.75H5.47a.404.404 0 00-.325.167L2.8 21.452a.365.365 0 00-.066.207v1.123c0 .199.083.39.23.53.146.14.344.22.552.22h17.968a.799.799 0 00.553-.22.733.733 0 00.229-.53V21.66a.365.365 0 00-.066-.207l-1.935-2.783zm-16.75 4.113v-.748h17.97v.748H3.514zM20.313 1.068H4.688c-.311.001-.609.12-.828.33-.22.21-.343.496-.344.793v9.734c0 .298.124.583.344.793.22.21.517.33.828.33h5.468v1.498H8.594a.4.4 0 00-.276.11.367.367 0 00-.115.264v1.498c0 .1.041.194.115.265.073.07.172.11.276.11h7.812a.4.4 0 00.277-.11.367.367 0 00.114-.265V14.92a.366.366 0 00-.114-.264.4.4 0 00-.277-.11h-1.562v-1.498h5.469c.31 0 .608-.12.827-.33a1.1 1.1 0 00.344-.793V2.191a1.104 1.104 0 00-.344-.793 1.205 1.205 0 00-.828-.33zm-4.297 14.227v.749H8.984v-.75h7.032zm-5.078-.749v-1.498h3.124v1.498h-3.124zm9.765-2.62a.366.366 0 01-.114.264.4.4 0 01-.276.11H4.688a.4.4 0 01-.277-.11.367.367 0 01-.114-.265v-1.123h16.406v1.123zm0-1.873H4.297V2.191c0-.099.041-.194.114-.264a.4.4 0 01.277-.11h15.625a.4.4 0 01.276.11c.073.07.114.165.114.264v7.862z" fill="#000"/><path d="M18.36 11.177h.78v.749h-.78v-.75zM8.984 9.305h1.563a.4.4 0 00.276-.11.367.367 0 00.114-.265v-.374h3.126v.374c0 .1.04.195.114.265a.4.4 0 00.276.11h1.563a.4.4 0 00.276-.11.366.366 0 00.114-.265V7.433c0-.1-.04-.195-.114-.265a.4.4 0 00-.276-.11h-.391V4.812h.39a.4.4 0 00.277-.11.366.366 0 00.114-.264V2.94c0-.1-.04-.194-.114-.265a.4.4 0 00-.276-.11h-1.563a.4.4 0 00-.276.11.367.367 0 00-.114.265v.374h-3.126V2.94c0-.1-.04-.194-.114-.265a.4.4 0 00-.276-.11H8.984a.4.4 0 00-.276.11.367.367 0 00-.114.265v1.498c0 .099.04.194.114.264a.4.4 0 00.276.11h.391v2.246h-.39a.4.4 0 00-.277.11.367.367 0 00-.114.265V8.93c0 .1.04.195.114.265a.4.4 0 00.276.11zm6.641-.75h-.781v-.748h.781v.749zm-.781-5.24h.781v.748h-.781v-.749zm-5.469 0h.781v.748h-.781v-.749zm.781 1.497h.39a.4.4 0 00.277-.11.367.367 0 00.114-.264v-.375h3.126v.375c0 .099.04.194.114.264a.4.4 0 00.276.11h.39v2.246h-.39a.4.4 0 00-.276.11.367.367 0 00-.114.265v.374h-3.126v-.374c0-.1-.04-.195-.114-.265a.4.4 0 00-.276-.11h-.39V4.812zm-.781 2.995h.781v.749h-.781v-.749zm-.391 11.98h5.47v.75h-5.47v-.75zm14.403-5.675l-1.106-1.06a.39.39 0 00-.277-.108.391.391 0 00-.274.108l-5.25 5.032a.367.367 0 00-.093.146l-.278.794a.363.363 0 00.094.381l-.55.532.55.528.555-.528a.386.386 0 00.273.109.455.455 0 00.125-.019l.828-.266a.387.387 0 00.153-.09l5.25-5.031a.366.366 0 000-.528zm-5.735 4.968l-.511.16-.215-.201.172-.49 3.8-3.644.555.528-3.8 3.647zm4.352-4.175l-.55-.527.55-.532.555.531-.555.528z" fill="#000"/></svg>