<svg width="25" height="25" fill="none" xmlns="http://www.w3.org/2000/svg"><g clip-path="url(#clip0_11_59)" fill="#000"><path d="M22.5 4.189H11.25v.8H22.5v-.8zm-4.167 1.597H11.25v.8h7.083v-.8zm0 1.598H11.25v.799h7.083v-.8zM22.5 2.591h-7.917v.8H22.5v-.8zm-8.75 0h-.833v.8h.833v-.8zm-.833 13.978h-.834v.799h.834v-.8zM6.961 3.273l-.589-.565-.833.8a.388.388 0 000 .564l.833.8.59-.566-.54-.516.54-.517zm3.334.234l-.834-.799-.589.565.539.517-.539.516.59.565.833-.799a.388.388 0 000-.565zM7.939 2.464L7.104 4.86l.79.252.835-2.396-.79-.253zm13.728 10.51V9.78h-.834v3.194H20V8.981h-.833v3.993h-.834v-1.996H17.5v1.996h-.833v-2.396h-.834v2.396H15v-1.597h-.833v1.597h-.834v.8H22.5v-.8h-.833z"/><path d="M22.083.595H2.917C1.537.596.418 1.668.417 2.99v13.578c.001 1.322 1.12 2.394 2.5 2.396h5.159l-1.667 3.194H4.167c-.69 0-1.25.537-1.25 1.198 0 .662.56 1.198 1.25 1.198h16.666c.69 0 1.25-.536 1.25-1.198 0-.661-.56-1.198-1.25-1.198h-2.242l-1.667-3.194h5.16c1.38-.002 2.498-1.074 2.5-2.396V2.99c-.002-1.323-1.12-2.395-2.5-2.396zM1.25 6.214l.947 1.08c.08.09.196.143.32.143h1.275c.123 0 .24-.052.319-.143l.947-1.08.935.29.104 1.408c.008.117.07.225.17.295l1.032.718c.1.07.226.093.346.065l1.43-.34.579.761-.78 1.199a.385.385 0 00-.04.335l.394 1.162a.407.407 0 00.24.247l1.365.53v.943l-1.366.53a.405.405 0 00-.24.248l-.125.366h-2.4c.933-1.874.106-4.118-1.85-5.013a4.074 4.074 0 00-3.602.11V6.214zm0 4.804c1.348-1.008 3.293-.778 4.344.514.812.997.874 2.378.156 3.44h-4.5v-3.954zm19.583 11.94c.23 0 .417.179.417.4 0 .22-.186.399-.417.399H4.167a.408.408 0 01-.417-.4c0-.22.187-.399.417-.399h16.666zm-3.174-.799H7.341l1.667-3.194h6.985l1.666 3.194zm6.091-5.59c0 .882-.746 1.597-1.667 1.597H2.917c-.92 0-1.667-.715-1.667-1.598v-.798h22.5v.799zm0-1.598H10.106l1.3-.505a.4.4 0 00.26-.37v-1.481a.4.4 0 00-.26-.37l-1.448-.562-.274-.808.826-1.27a.386.386 0 00-.017-.446l-.908-1.198a.426.426 0 00-.437-.153l-1.515.36-.716-.499-.11-1.49a.403.403 0 00-.287-.351L5.051 5.37a.432.432 0 00-.448.123L3.6 6.638h-.888L1.708 5.493a.432.432 0 00-.448-.123l-.01.004V2.99c0-.882.746-1.598 1.667-1.598h19.166c.92 0 1.667.716 1.667 1.598v11.98z"/></g><defs><clipPath id="clip0_11_59"><path fill="#fff" transform="translate(0 .595)" d="M0 0h25v23.961H0z"/></clipPath></defs></svg>