<svg width="21" height="25" fill="none" xmlns="http://www.w3.org/2000/svg"><path d="M17.717 16.249l-1.467-.413-3.193-1.998v-.458c.925-.669 1.56-1.69 1.677-2.86.464-.072.819-.458.819-.922V6.73a.683.683 0 00.301-.564v-1.46l2.203-.36a.75.75 0 00.648-.685.739.739 0 00-.542-.766L10.736.63a.81.81 0 00-.474 0L2.836 2.894a.739.739 0 00-.243 1.307V6.11h-.019c-.418 0-.758.326-.758.727v.947l-.49 2.754c-.084.476.299.913.804.913h1.658c.504 0 .888-.435.803-.913l-.49-2.754v-.947c0-.401-.34-.727-.758-.727h-.018V4.408l1.82.297v1.46c0 .23.118.436.301.563l.001 1.611v1.259c0 .464.355.85.819.921.118 1.17.752 2.191 1.675 2.86v.46l-3.192 1.997-1.466.413C1.715 16.69.607 18.07.607 19.675v1.046c0 .194.164.351.366.351a.359.359 0 00.366-.35v-1.047c0-1.264.885-2.396 2.15-2.753l1.367-.384 5.457 3.108c.11.063.257.067.374 0l5.458-3.108 1.366.384c1.266.357 2.15 1.488 2.15 2.753v3.39c0 .435-.37.788-.823.788h-1.614v-1.512a.359.359 0 00-.366-.351.359.359 0 00-.366.35v1.514H4.507V22.34a.359.359 0 00-.366-.351.359.359 0 00-.367.35v1.514H2.162c-.454 0-.823-.354-.823-.789v-.703a.359.359 0 00-.366-.351.359.359 0 00-.366.351v.703c0 .822.697 1.49 1.555 1.49h16.676c.858 0 1.555-.668 1.555-1.49v-3.39c0-1.567-1.07-2.974-2.676-3.426zm-13.93-5.5H2.13a.081.081 0 01-.082-.093l.443-2.491h.935l.443 2.491a.08.08 0 01-.082.093zM3.37 6.837v.626h-.82v-.626c0-.014.01-.025.025-.025h.769c.014 0 .026.01.026.025zm5.82 11.221l.146.215-3.739-2.129 2.373-1.486a7.173 7.173 0 001.22 3.4zm-.002-1.515a9.827 9.827 0 002.624 0 6.614 6.614 0 01-.616 1.133L10.5 18.7l-.696-1.025a6.61 6.61 0 01-.616-1.133zm2.622 1.515a7.171 7.171 0 001.22-3.4l2.373 1.486-3.739 2.13.146-.216zM13.952 6.86h.868v1.128h-.431a.429.429 0 01-.437-.42V6.86zM3.058 3.563L10.485 1.3a.05.05 0 01.029 0l7.427 2.264c.015.005.036.011.034.048-.003.036-.025.04-.04.042l-2.456.401-.922-.11a.363.363 0 00-.409.306.354.354 0 00.319.392l.655.077v1.44l-9.244-.001v-1.44l3.79-.45a7.075 7.075 0 011.663 0l1.434.17c.2.025.384-.112.408-.304a.354.354 0 00-.318-.392l-1.434-.17a7.836 7.836 0 00-1.843 0l-4.057.481-2.457-.4c-.016-.003-.037-.007-.04-.043-.003-.037.018-.043.034-.048zm3.121 4.425V6.86h.87v.709a.429.429 0 01-.438.419h-.432zm.806 2.351a.558.558 0 00-.564-.51.237.237 0 01-.242-.231V8.69h.432c.645 0 1.17-.503 1.17-1.121V6.86h5.438v.709c0 .618.525 1.12 1.17 1.12h.432v.909a.237.237 0 01-.242.231.558.558 0 00-.564.51c-.117 1.772-1.66 3.16-3.515 3.16-1.854 0-3.398-1.388-3.515-3.16zm3.515 3.862a4.38 4.38 0 001.825-.396v.223c0 .6-.084 1.191-.247 1.762-.995.182-2.12.19-3.156 0a6.428 6.428 0 01-.247-1.762l-.002-.023v-.201a4.38 4.38 0 001.827.397z" fill="#000"/></svg>