<svg width="25" height="23" fill="none" xmlns="http://www.w3.org/2000/svg"><path d="M0 .364V20.03h8.024v1.406H6.557v1.404h11.885v-1.404h-1.466V20.03H25V.364H0zm15.511 21.073H9.489v-1.406h6.022v1.406zm8.024-2.81H1.465v-2.811h22.07v2.81zm0-4.215H1.465V1.768h22.07V14.41z" fill="#000"/><path d="M9.958 5.552l-1.036-.993L5.24 8.09l3.683 3.53 1.036-.992L7.31 8.09l2.648-2.537zm6.12-.992l-1.036.992 2.648 2.537-2.648 2.538 1.036.993 3.683-3.53-3.683-3.53zm-3.446-.704l-1.7 8.194 1.436.274 1.7-8.194-1.436-.274z" fill="#000"/></svg>