<svg width="25" height="23" viewBox="0 0 25 23" fill="none" xmlns="http://www.w3.org/2000/svg">
<path d="M0 0.363525V20.0309H8.02402V21.4371H6.55742V22.8411H18.4425V21.4371H16.9759V20.0309H25V0.363525H0ZM15.511 21.4371H9.48897V20.0309H15.511V21.4371H15.511ZM23.5351 18.6269H1.46489V15.8155H23.5351V18.6269H23.5351ZM23.5351 14.4115H1.46489V1.76756H23.5351V14.4115H23.5351Z" fill="black"/>
<path d="M9.95816 5.55186L8.92232 4.55908L5.23877 8.08949L8.92232 11.6198L9.95816 10.6271L7.31045 8.08949L9.95816 5.55186Z" fill="black"/>
<path d="M16.0777 4.55908L15.0419 5.55186L17.6896 8.08949L15.0419 10.6271L16.0777 11.6198L19.7612 8.08949L16.0777 4.55908Z" fill="black"/>
<path d="M12.6319 3.85609L10.9313 12.0497L12.3681 12.3236L14.0687 4.13002L12.6319 3.85609Z" fill="black"/>
</svg>
